<svg xmlns="http://www.w3.org/2000/svg" viewBox="0 0 64 64" width="64" height="64">
  <!-- Rounded Base Background for Favicon Tab Visibility -->
  <rect width="64" height="64" rx="14" fill="#0f172a"/>
  
  <!-- Pantograph -->
  <path d="M26 14 L32 9 L38 14 M32 9 L32 7 M27 7 L37 7" fill="none" stroke="#94a3b8" stroke-width="1.8" stroke-linecap="round" stroke-linejoin="round"/>

  <!-- Train Body (White/Silver) -->
  <rect x="16" y="14" width="32" height="36" rx="6" fill="#ffffff"/>

  <!-- Windshield -->
  <rect x="19" y="19" width="26" height="13" rx="2.5" fill="#0a0e1a"/>
  <!-- Destination display (Amber LED) -->
  <rect x="23" y="21" width="18" height="2.5" rx="0.5" fill="#f59e0b"/>

  <!-- SBB Red Front Apron -->
  <path d="M16 35 Q16 50 32 50 Q48 50 48 35 Z" fill="#eb0000"/>

  <!-- Headlights -->
  <!-- Top central light -->
  <circle cx="32" cy="16.5" r="1.2" fill="#ffffff"/>
  <!-- Lower left headlight -->
  <circle cx="22" cy="42" r="2.2" fill="#ffffff"/>
  <!-- Lower right headlight -->
  <circle cx="42" cy="42" r="2.2" fill="#ffffff"/>

  <!-- Swiss emblem cross -->
  <rect x="30.5" y="40.5" width="3" height="3" rx="0.5" fill="#ffffff"/>
  <path d="M32 41 L32 43 M31 42 L33 42" stroke="#eb0000" stroke-width="0.8" stroke-linecap="round"/>

  <!-- Ground Rail & Under-chassis -->
  <rect x="22" y="50" width="20" height="3" rx="1" fill="#334155"/>
  <line x1="10" y1="57" x2="54" y2="57" stroke="#64748b" stroke-width="2.5" stroke-linecap="round"/>
</svg>
